<?xml version="1.0" encoding="UTF-8"?>
<svg id="Capa_2" data-name="Capa 2" xmlns="http://www.w3.org/2000/svg" viewBox="0 0 264.11 242.64">
  <defs>
    <style>
      .cls-1 {
        fill: #fff;
      }
    </style>
  </defs>
  <g id="Capa_1-2" data-name="Capa 1">
    <path class="cls-1" d="M14.85,18.68V8.91l-3.11,6.87h-2.72l-3.11-6.87v9.77H.82V.13H6.38l4,8.73L14.4,.13h5.54V18.68h-5.09Z"/>
    <path class="cls-1" d="M23.13,18.68V.13h5.09V18.68h-5.09Z"/>
    <path class="cls-1" d="M44.01,17.14c-1.32,1.11-2.85,1.67-4.57,1.67-1.2,0-2.35-.21-3.45-.64s-2.06-1.05-2.87-1.87c-.82-.82-1.47-1.82-1.96-3s-.73-2.53-.73-4.05c0-1.31,.24-2.52,.73-3.65s1.16-2.1,2.01-2.93c.85-.83,1.86-1.48,3.02-1.96,1.16-.48,2.41-.72,3.75-.72,.84,0,1.64,.09,2.4,.27,.77,.18,1.48,.45,2.13,.81,.65,.36,1.24,.78,1.76,1.28s.95,1.06,1.28,1.69l-3.79,2.9c-.37-.73-.91-1.32-1.65-1.76s-1.51-.67-2.33-.67c-.61,0-1.17,.12-1.67,.37-.5,.24-.94,.58-1.31,1.02-.37,.44-.65,.95-.86,1.55-.21,.6-.31,1.26-.31,1.97s.1,1.39,.31,1.99c.21,.59,.5,1.1,.88,1.53,.37,.43,.82,.76,1.35,.99s1.11,.35,1.75,.35c1.48,0,2.79-.61,3.92-1.83h-3.21v-3.66h7.63v9.88h-4.21v-1.54Z"/>
    <path class="cls-1" d="M58.82,14.32c.59,0,1.1-.13,1.52-.39s.76-.6,1.02-1.03c.26-.43,.45-.92,.57-1.48,.12-.56,.18-1.14,.18-1.75V.13h5.1V9.67c0,1.29-.17,2.5-.5,3.62s-.84,2.09-1.54,2.91c-.7,.82-1.57,1.46-2.63,1.93s-2.29,.71-3.72,.71-2.75-.25-3.8-.74-1.92-1.16-2.6-2c-.68-.84-1.18-1.81-1.49-2.91-.31-1.11-.47-2.28-.47-3.51V.13h5.09V9.67c0,.61,.06,1.2,.18,1.76,.12,.57,.31,1.06,.58,1.49,.26,.43,.6,.77,1.01,1.02s.91,.38,1.5,.38Z"/>
    <path class="cls-1" d="M83.35,14.24v4.44h-13.22V.13h12.99V4.57h-7.89v2.61h6.74v4.13h-6.74v2.93h8.12Z"/>
    <path class="cls-1" d="M85.73,18.68V.13h5.09V14.24h8.41v4.44h-13.51Z"/>
    <path class="cls-1" d="M136.5,242.48v-9.77l-3.11,6.87h-2.72l-3.11-6.87v9.77h-5.09v-18.55h5.57l4,8.73,4.02-8.73h5.54v18.55h-5.09Z"/>
    <path class="cls-1" d="M158,238.04v4.44h-13.22v-18.55h12.99v4.44h-7.89v2.61h6.74v4.13h-6.74v2.93h8.12Z"/>
    <path class="cls-1" d="M160.38,242.48v-18.55h5.09v18.55h-5.09Z"/>
    <path class="cls-1" d="M172.29,223.93l3.37,5.85,3.37-5.85h5.49l-6.19,9.41,5.98,9.14h-5.49l-3.16-5.59-3.16,5.59h-5.51l5.98-9.14-6.19-9.41h5.51Z"/>
    <path class="cls-1" d="M193.38,242.64c-1.41,0-2.69-.27-3.84-.81-1.15-.54-2.13-1.25-2.95-2.13-.82-.88-1.46-1.89-1.91-3.02s-.68-2.3-.68-3.5,.24-2.39,.71-3.53c.47-1.13,1.13-2.13,1.97-2.99s1.85-1.55,3-2.06c1.16-.51,2.43-.77,3.8-.77s2.69,.27,3.84,.81,2.13,1.25,2.95,2.14c.82,.89,1.45,1.9,1.89,3.03s.67,2.29,.67,3.48-.24,2.39-.71,3.51c-.47,1.12-1.12,2.12-1.96,2.98s-1.83,1.55-2.99,2.08c-1.16,.52-2.43,.78-3.8,.78Zm-4.21-9.41c0,.63,.09,1.23,.26,1.82,.17,.58,.44,1.1,.78,1.55,.35,.45,.79,.82,1.32,1.1,.53,.28,1.16,.42,1.89,.42s1.37-.14,1.91-.43c.54-.29,.98-.66,1.32-1.12,.34-.46,.59-.99,.76-1.58,.17-.59,.25-1.19,.25-1.8s-.09-1.23-.26-1.82-.44-1.1-.8-1.54c-.36-.44-.8-.8-1.33-1.07-.53-.27-1.15-.41-1.87-.41s-1.36,.14-1.89,.42c-.53,.28-.97,.65-1.32,1.11-.35,.46-.61,.98-.77,1.57-.17,.58-.25,1.18-.25,1.79Z"/>
    <path class="cls-1" d="M218.23,238.04v4.44h-13.22v-18.55h12.99v4.44h-7.89v2.61h6.74v4.13h-6.74v2.93h8.13Z"/>
    <path class="cls-1" d="M220.6,242.48v-18.55h5.1v18.55h-5.1Z"/>
    <path class="cls-1" d="M228.89,242.48v-18.55h8.52c.91,0,1.74,.19,2.51,.56,.77,.38,1.42,.86,1.97,1.46s.98,1.29,1.29,2.06c.31,.78,.47,1.55,.47,2.34,0,1.08-.24,2.09-.71,3.02-.47,.93-1.12,1.69-1.96,2.29l3.92,6.82h-5.75l-3.27-5.7h-1.91v5.7h-5.1Zm5.1-10.14h3.21c.31,0,.61-.17,.88-.52,.27-.35,.4-.84,.4-1.46s-.16-1.14-.47-1.48-.63-.51-.94-.51h-3.08v3.97Z"/>
    <path class="cls-1" d="M254.65,242.64c-1.41,0-2.69-.27-3.84-.81-1.15-.54-2.13-1.25-2.95-2.13-.82-.88-1.45-1.89-1.91-3.02s-.68-2.3-.68-3.5,.24-2.39,.71-3.53c.47-1.13,1.13-2.13,1.97-2.99,.84-.86,1.85-1.55,3-2.06,1.16-.51,2.42-.77,3.8-.77s2.69,.27,3.84,.81c1.15,.54,2.13,1.25,2.95,2.14,.82,.89,1.45,1.9,1.89,3.03,.44,1.13,.67,2.29,.67,3.48s-.24,2.39-.71,3.51c-.47,1.12-1.12,2.12-1.96,2.98s-1.83,1.55-2.99,2.08-2.43,.78-3.8,.78Zm-4.21-9.41c0,.63,.09,1.23,.26,1.82,.17,.58,.44,1.1,.78,1.55,.35,.45,.79,.82,1.32,1.1s1.16,.42,1.89,.42,1.37-.14,1.91-.43,.98-.66,1.32-1.12c.34-.46,.59-.99,.76-1.58,.17-.59,.25-1.19,.25-1.8s-.09-1.23-.26-1.82c-.17-.58-.44-1.1-.8-1.54-.36-.44-.8-.8-1.33-1.07s-1.15-.41-1.87-.41-1.36,.14-1.89,.42c-.53,.28-.97,.65-1.32,1.11-.35,.46-.61,.98-.77,1.57-.17,.58-.25,1.18-.25,1.79Z"/>
    <g>
      <path class="cls-1" d="M46.4,78.22c-4.04,8.07-7,16.86-8.65,26.2-4.09,23.17,.55,45.86,11.54,64.71L116.23,90.55l-69.83-12.33Z"/>
      <path class="cls-1" d="M126.87,25.57c-32.89,1.69-62.5,20.37-78.39,48.71l102.23,18.04L126.87,25.57Z"/>
      <path class="cls-1" d="M217.35,163.86c4.04-8.07,7-16.86,8.65-26.2,4.09-23.16-.54-45.83-11.51-64.67l-66.97,78.55,69.83,12.33Z"/>
      <path class="cls-1" d="M212.15,69.17c-13.92-21.54-36.42-37.45-63.67-42.26-5.76-1.02-11.49-1.49-17.14-1.47l34.86,97.61,45.94-53.89Z"/>
      <path class="cls-1" d="M51.62,172.95c13.92,21.52,36.41,37.41,63.64,42.22,6.13,1.08,12.23,1.55,18.24,1.45l-35.93-97.61-45.95,53.94Z"/>
      <path class="cls-1" d="M137.96,216.44c32.45-2.04,61.58-20.62,77.3-48.64l-101.82-17.97,24.52,66.61Z"/>
    </g>
    <circle class="cls-1" cx="228.66" cy="51.76" r="6.17"/>
    <polygon class="cls-1" points="263.04 26.08 233.54 26.08 233.54 27.98 261.14 27.98 261.14 56.28 263.04 56.28 263.04 26.08"/>
    <polygon class="cls-1" points="0 26.08 29.51 26.08 29.51 27.98 1.91 27.98 1.91 56.28 0 56.28 0 26.08"/>
    <polygon class="cls-1" points="263.04 216 233.54 216 233.54 214.09 261.14 214.09 261.14 185.8 263.04 185.8 263.04 216"/>
    <polygon class="cls-1" points="0 216 29.51 216 29.51 214.09 1.91 214.09 1.91 185.8 0 185.8 0 216"/>
  </g>
</svg>